<?xml version="1.0" standalone="no"?>
<!DOCTYPE svg PUBLIC "-//W3C//DTD SVG 20010904//EN"
 "http://www.w3.org/TR/2001/REC-SVG-20010904/DTD/svg10.dtd">
<svg version="1.0" xmlns="http://www.w3.org/2000/svg"
 width="512.000000pt" height="512.000000pt" viewBox="0 0 512.000000 512.000000"
 preserveAspectRatio="xMidYMid meet">

<g transform="translate(0.000000,512.000000) scale(0.100000,-0.100000)"
fill="#000000" stroke="none">
<path d="M2520 4863 c-38 -7 -2146 -912 -2183 -937 -17 -12 -45 -43 -62 -70
l-30 -49 -3 -236 c-4 -284 0 -304 74 -378 29 -29 60 -53 68 -53 13 0 16 -13
16 -66 0 -98 16 -141 77 -201 28 -29 59 -53 67 -53 14 0 16 -75 16 -740 0
-665 -2 -740 -16 -740 -27 0 -119 -101 -132 -146 -8 -27 -12 -119 -12 -268 0
-198 -2 -226 -16 -226 -27 0 -119 -101 -132 -146 -7 -23 -12 -92 -12 -153 0
-105 1 -113 25 -136 l24 -25 2271 0 2271 0 24 25 c24 23 25 31 25 136 0 61 -5
130 -12 153 -13 45 -105 146 -132 146 -14 0 -16 28 -16 226 0 149 -4 241 -12
268 -13 45 -105 146 -132 146 -14 0 -16 75 -16 740 0 665 2 740 16 740 8 0 39
24 67 53 61 60 77 103 77 201 0 53 3 66 16 66 27 0 119 101 132 146 17 60 16
476 -2 527 -22 60 -63 105 -124 136 -140 70 -2121 910 -2157 914 -22 3 -51 3
-65 0z m1115 -610 c715 -305 1047 -452 1063 -469 21 -24 22 -31 22 -240 0
-215 0 -215 -25 -239 l-24 -25 -2111 0 -2111 0 -24 25 c-25 24 -25 24 -25 239
0 209 1 216 23 239 15 17 365 171 1054 466 1210 517 1073 461 1098 454 11 -3
488 -205 1060 -450z m-2275 -1188 c0 -46 -4 -60 -25 -80 l-24 -25 -351 0 -351
0 -24 25 c-21 20 -25 34 -25 80 l0 55 400 0 400 0 0 -55z m640 -1 c0 -88 18
-133 77 -191 28 -29 59 -53 67 -53 14 0 16 -75 16 -740 0 -665 -2 -740 -16
-740 -8 0 -39 -24 -67 -52 -59 -59 -77 -104 -77 -192 l0 -56 -240 0 -240 0 0
56 c0 88 -18 133 -77 192 -28 28 -59 52 -67 52 -14 0 -16 75 -16 740 0 665 2
740 16 740 8 0 39 24 67 53 59 58 77 103 77 191 l0 56 240 0 240 0 0 -56z
m960 1 c0 -46 -4 -60 -25 -80 l-24 -25 -351 0 -351 0 -24 25 c-21 20 -25 34
-25 80 l0 55 400 0 400 0 0 -55z m640 -1 c0 -88 18 -133 77 -191 28 -29 59
-53 67 -53 14 0 16 -75 16 -740 0 -665 -2 -740 -16 -740 -8 0 -39 -24 -67 -52
-59 -59 -77 -104 -77 -192 l0 -56 -240 0 -240 0 0 56 c0 88 -18 133 -77 192
-28 28 -59 52 -67 52 -14 0 -16 75 -16 740 0 665 2 740 16 740 8 0 39 24 67
53 59 58 77 103 77 191 l0 56 240 0 240 0 0 -56z m960 1 c0 -46 -4 -60 -25
-80 l-24 -25 -351 0 -351 0 -24 25 c-21 20 -25 34 -25 80 l0 55 400 0 400 0 0
-55z m-3360 -985 l0 -720 -240 0 -240 0 0 720 0 720 240 0 240 0 0 -720z
m1600 0 l0 -720 -240 0 -240 0 0 720 0 720 240 0 240 0 0 -720z m1600 0 l0
-720 -240 0 -240 0 0 720 0 720 240 0 240 0 0 -720z m-3065 -905 c21 -20 25
-34 25 -80 l0 -55 -400 0 -400 0 0 55 c0 46 4 60 25 80 l24 25 351 0 351 0 24
-25z m1600 0 c21 -20 25 -34 25 -80 l0 -55 -400 0 -400 0 0 55 c0 46 4 60 25
80 l24 25 351 0 351 0 24 -25z m1600 0 c21 -20 25 -34 25 -80 l0 -55 -400 0
-400 0 0 55 c0 46 4 60 25 80 l24 25 351 0 351 0 24 -25z m25 -375 l0 -80
-2000 0 -2000 0 0 80 0 80 2000 0 2000 0 0 -80z m135 -265 c21 -20 25 -34 25
-80 l0 -55 -2160 0 -2160 0 0 55 c0 46 4 60 25 80 l24 25 2111 0 2111 0 24
-25z"/>
<path d="M1570 3996 c-531 -221 -975 -412 -987 -424 -31 -29 -30 -76 2 -107
13 -14 34 -25 47 -25 13 0 452 178 976 397 l952 396 953 -396 c523 -219 962
-397 975 -397 57 0 92 84 55 128 -20 24 -1955 833 -1987 831 -12 0 -455 -182
-986 -403z"/>
</g>
</svg>
